<svg width="18" height="20" viewBox="0 0 18 20" fill="none" xmlns="http://www.w3.org/2000/svg">
<path d="M8.16203 1.668C8.16203 2.588 7.41603 3.336 6.49403 3.336C5.57203 3.336 4.82603 2.59 4.82603 1.668C4.82603 0.746 5.57603 0 6.49603 0C7.41603 0 8.16203 0.748 8.16203 1.668ZM13.242 15.32C12.92 15.166 12.536 15.302 12.382 15.624C11.486 17.496 9.56603 18.706 7.49003 18.706C4.50203 18.706 2.07203 16.276 2.07203 13.288C2.07203 11.592 2.84403 10.024 4.19203 8.988C4.47603 8.77 4.52803 8.366 4.31003 8.082C4.09403 7.8 3.68803 7.748 3.40603 7.964C1.73603 9.248 0.780029 11.188 0.780029 13.29C0.780029 16.988 3.79003 20 7.49003 20C10.058 20 12.436 18.5 13.546 16.182C13.7 15.86 13.562 15.474 13.242 15.32ZM17.128 15.818L13.652 10.242C13.486 9.974 13.158 9.912 12.806 9.926H8.43003C8.25203 9.926 8.10803 9.906 8.10803 9.884L8.11203 9.844V9.134C8.11203 8.956 8.14003 8.818 8.17603 8.82C8.19603 8.822 8.21803 8.824 8.24203 8.824H12.06C12.49 8.824 12.84 8.476 12.84 8.044C12.84 7.614 12.492 7.264 12.06 7.264H8.24203C8.21803 7.264 8.19803 7.266 8.17603 7.27C8.14003 7.272 8.11203 7.134 8.11203 6.956V5.132C8.11203 4.438 7.54803 3.876 6.85603 3.876H6.50803C5.81603 3.876 5.25403 4.438 5.25403 5.132V11.442C5.25403 12.134 5.81603 12.698 6.50803 12.698H12.518C12.696 12.698 12.918 12.818 13.018 12.966C13.622 13.878 15.556 16.8 15.556 16.8C15.788 17.174 16.332 17.26 16.766 16.988C17.2 16.718 17.362 16.194 17.128 15.818Z" fill="#DBDDE0"/>
</svg>
