<svg width="18" height="12" viewBox="0 0 18 12" fill="none" xmlns="http://www.w3.org/2000/svg">
<path d="M17.75 1.54199C17.75 0.743994 17.1 0.0939941 16.302 0.0939941H1.698C0.9 0.0939941 0.25 0.743994 0.25 1.54199V2.35399H17.75V1.54199ZM0.252 4.78799V10.466C0.252 11.266 0.9 11.916 1.7 11.916H16.3C17.1 11.916 17.75 11.266 17.75 10.466V4.78799H0.252ZM5.624 9.84999C5.624 9.90999 5.574 9.95799 5.516 9.95799H2.4C2.342 9.95799 2.292 9.90999 2.292 9.84999V8.83599C2.292 8.77799 2.342 8.72799 2.4 8.72799H5.516C5.574 8.72799 5.624 8.77799 5.624 8.83599V9.84999Z" fill="#DBDDE0"/>
</svg>
