<svg width="18" height="18" viewBox="0 0 18 18" fill="none" xmlns="http://www.w3.org/2000/svg">
<path d="M9.004 0.25C4.168 0.25 0.25 4.168 0.25 8.996C0.25 13.832 4.168 17.75 9.004 17.75C13.832 17.75 17.75 13.832 17.75 8.996C17.75 4.168 13.832 0.25 9.004 0.25ZM10.006 15.072C9.574 15.144 9.162 15.18 8.764 15.18C8.346 15.18 7.92 15.144 7.502 15.072C7.438 14.654 7.402 14.242 7.402 13.83C7.402 13.418 7.438 13 7.502 12.568C7.92 12.504 8.34 12.468 8.744 12.468C9.156 12.468 9.574 12.504 10.006 12.568C10.078 13.002 10.108 13.42 10.108 13.816C10.108 14.236 10.078 14.654 10.006 15.072ZM12.272 7.682C12.07 8.072 11.818 8.396 11.528 8.664C11.24 8.932 10.944 9.148 10.634 9.306C10.33 9.472 10.078 9.594 9.89 9.674V11.226C9.494 11.29 9.11 11.326 8.742 11.326C8.374 11.326 8.014 11.29 7.674 11.226V8.296C7.934 8.252 8.208 8.188 8.49 8.102C8.772 8.016 9.038 7.9 9.276 7.748C9.514 7.604 9.71 7.416 9.86 7.2C10.012 6.976 10.09 6.702 10.09 6.37C10.09 5.886 9.91 5.512 9.564 5.258C9.21 4.998 8.742 4.876 8.164 4.876C7.926 4.876 7.716 4.884 7.528 4.898C7.34 4.912 7.168 4.942 7.008 4.984C6.85 5.02 6.684 5.07 6.518 5.122C6.36 5.172 6.186 5.23 5.998 5.302C5.84 5.006 5.71 4.696 5.608 4.378C5.508 4.06 5.442 3.728 5.42 3.39C5.716 3.29 5.99 3.202 6.242 3.13C6.488 3.05 6.732 2.992 6.97 2.95C7.208 2.906 7.446 2.87 7.684 2.856C7.922 2.842 8.182 2.828 8.448 2.828C9.812 2.828 10.844 3.138 11.536 3.758C12.228 4.378 12.576 5.222 12.576 6.306C12.582 6.838 12.474 7.294 12.272 7.682Z" fill="#DBDDE0"/>
</svg>
