<svg width="20" height="20" viewBox="0 0 20 20" fill="none" xmlns="http://www.w3.org/2000/svg">
<path d="M19.558 8.5C18.85 7.942 17.528 8.418 16.498 9.562C15.536 9.294 14.682 9.36 13.954 9.77C12.56 10.556 12.032 12.364 11.836 13.738C11.806 13.95 11.778 14.166 11.748 14.382C11.436 16.76 11.14 19.008 8.31998 19.008C8.27398 19.008 8.22798 19.008 8.17998 19.006C7.37998 18.986 6.80398 18.738 6.41998 18.246C5.71198 17.338 5.83398 15.854 5.92398 15.238C6.20398 15.112 6.40198 14.836 6.41198 14.51L6.45398 13.292L7.94798 12.848C8.13398 12.792 8.27798 12.674 8.38198 12.528C8.64998 12.588 8.98398 12.574 9.21998 12.426C9.63398 12.168 10.238 11.672 10.99 10.734C11.812 9.708 12.014 8.882 12.034 8.346C12.044 7.964 11.778 7.576 11.58 7.468C11.382 7.36 11.346 7.562 11.384 7.942C11.44 8.514 11.35 9.384 10.612 10.33C10.598 10.346 10.586 10.358 10.574 10.374L10.58 10.332C10.756 10.06 10.908 9.774 11.024 9.468C12.224 6.29 9.62998 2.582 9.51798 2.426C9.49398 2.392 9.46198 2.37 9.42998 2.344C9.50398 2.174 9.48598 2.02 9.36198 1.94C9.16798 1.814 8.86398 1.436 8.68798 1.096L8.37598 0.499995C8.20198 0.161995 7.83398 0.101995 7.55798 0.365995L6.78398 1.118C6.50598 1.382 6.55998 1.74 6.89798 1.918L7.44398 2.198C7.78198 2.376 8.15198 2.696 8.27198 2.914C8.36198 3.076 8.56998 3.1 8.78398 2.99C9.00398 3.31 11.14 6.552 10.16 9.146C10.12 9.252 10.058 9.35 10.006 9.452L9.99998 9.454C9.93998 9.44 9.88198 9.418 9.81998 9.418C9.66598 9.418 9.52198 9.464 9.40198 9.54L9.58398 9.714C9.47398 9.848 9.39998 10.012 9.39998 10.198C9.39998 10.244 9.40998 10.288 9.41798 10.332C9.07398 10.708 8.64398 11.044 8.12398 11.33C7.93198 11.222 7.69998 11.188 7.47398 11.256L5.65398 11.796L3.70598 11.18C3.48398 11.11 3.25198 11.14 3.06198 11.244C2.13398 10.694 1.50198 9.992 1.17998 9.146C0.153979 6.428 2.55198 2.996 2.57598 2.962C2.57798 2.956 2.57798 2.95 2.58398 2.944C2.58398 2.944 2.63998 2.998 2.70998 3.06C2.77998 3.126 2.93198 3.002 3.05198 2.784C3.16998 2.564 3.54398 2.244 3.88198 2.068L4.42598 1.786C4.76598 1.61 4.81798 1.252 4.54198 0.985995L3.76598 0.235995C3.48998 -0.0300047 3.12598 0.0299953 2.94798 0.369995L2.63798 0.965995C2.45998 1.306 2.15798 1.682 1.96398 1.81C1.76598 1.934 1.67998 2.104 1.76598 2.184L1.92398 2.332C1.88598 2.358 1.85198 2.386 1.82198 2.426C1.70998 2.582 -0.884021 6.29 0.315979 9.468C0.719979 10.532 1.49598 11.398 2.63198 12.058C2.66198 12.376 2.87998 12.66 3.20398 12.764L4.79398 13.266L4.75198 14.452C4.74598 14.698 4.84798 14.922 5.01198 15.082C4.90198 15.816 4.75598 17.612 5.68998 18.81C6.24798 19.526 7.07798 19.902 8.15798 19.928C8.21598 19.932 8.27198 19.932 8.32798 19.932C11.95 19.932 12.346 16.926 12.664 14.504C12.692 14.292 12.72 14.08 12.75 13.87C12.986 12.216 13.574 11.046 14.408 10.576C14.826 10.338 15.328 10.272 15.9 10.372C15.182 11.558 15.092 12.796 15.746 13.316C16.504 13.916 17.972 13.324 19.024 11.994C20.076 10.664 20.314 9.1 19.558 8.5ZM10.442 10.532C10.38 10.606 10.318 10.686 10.258 10.754C10.318 10.678 10.378 10.602 10.434 10.524L10.442 10.532ZM17.672 10.894C17.278 11.394 16.728 11.616 16.444 11.39C16.236 11.226 16.23 10.868 16.394 10.492C16.544 10.54 16.696 10.592 16.852 10.658C17.09 10.758 17.358 10.65 17.458 10.414C17.558 10.18 17.448 9.908 17.212 9.808C17.142 9.778 17.076 9.756 17.006 9.732C17.328 9.496 17.666 9.424 17.868 9.586C18.154 9.812 18.064 10.398 17.672 10.894Z" fill="#DBDDE0"/>
</svg>
