<svg width="18" height="20" viewBox="0 0 18 20" fill="none" xmlns="http://www.w3.org/2000/svg">
<path d="M5.51398 5.57802C5.64798 5.85202 5.79198 6.09202 5.84798 6.37802C6.00398 7.17202 6.36198 7.88602 6.89798 8.47602C7.23798 8.85002 7.21798 9.23402 7.10198 9.62002C7.00198 9.95402 7.03198 10.198 7.25398 10.454C7.54998 10.798 7.84598 11.14 8.25598 11.358C8.72998 11.612 9.39398 11.568 9.92998 11.15C10.368 10.808 10.696 10.37 11 9.91002C11.054 9.83002 11.032 9.76002 11.016 9.68402C10.996 9.59002 10.978 9.49602 10.958 9.40402C10.876 9.02602 10.988 8.72602 11.246 8.43002C11.762 7.83602 12.106 7.14402 12.266 6.37002C12.324 6.09002 12.472 5.85802 12.628 5.61002C12.624 5.70602 12.628 5.80402 12.614 5.90002C12.466 6.88802 12.578 7.86402 12.754 8.83202C12.828 9.23002 12.958 9.62202 13.118 10C13.212 10.22 13.436 10.216 13.608 10.286C14.23 10.534 14.834 10.814 15.406 11.166C15.924 11.484 16.186 11.968 16.37 12.514C16.658 13.366 16.91 14.228 17.082 15.114C17.27 16.086 17.344 17.062 17.288 18.05C17.262 18.482 16.99 18.74 16.628 18.876C15.77 19.198 14.886 19.448 13.986 19.632C13.456 19.74 12.924 19.822 12.396 19.924C11.996 20.002 11.604 19.992 11.206 19.994C10.158 20.002 9.10798 19.98 8.05998 20.002C7.05198 20.022 6.06198 19.916 5.06998 19.73C4.04798 19.54 3.03998 19.312 2.05598 18.986C1.77798 18.894 1.50398 18.79 1.23398 18.676C0.815985 18.5 0.749985 18.124 0.719985 17.748C0.673985 17.162 0.779985 16.582 0.841985 16.004C0.925985 15.226 1.05998 14.454 1.25198 13.694C1.43198 12.98 1.64998 12.276 2.04198 11.65C2.35598 11.148 2.86398 10.872 3.40998 10.672C3.86398 10.508 4.31998 10.35 4.77398 10.184C4.87799 10.146 4.95198 10.08 4.99998 9.96002C5.27198 9.26202 5.42798 8.54402 5.49598 7.79602C5.55598 7.14802 5.58398 6.50602 5.48798 5.86002C5.47798 5.77802 5.45998 5.69002 5.51398 5.57802ZM8.45198 17.142C8.45198 17.326 8.45998 17.478 8.44998 17.63C8.43998 17.782 8.48798 17.848 8.64998 17.84C8.88998 17.83 9.12998 17.83 9.36998 17.84C9.53398 17.848 9.57598 17.776 9.57198 17.628C9.56398 17.34 9.57798 17.052 9.56598 16.764C9.55998 16.592 9.60998 16.518 9.79598 16.526C10.084 16.538 10.372 16.522 10.66 16.532C10.818 16.538 10.876 16.474 10.874 16.322C10.87 16.082 10.864 15.842 10.876 15.604C10.886 15.434 10.804 15.402 10.66 15.404C10.388 15.41 10.116 15.406 9.84398 15.41C9.64598 15.414 9.55198 15.338 9.56398 15.124C9.57998 14.846 9.56598 14.564 9.57198 14.284C9.57398 14.152 9.52998 14.098 9.38998 14.102C9.14198 14.11 8.89398 14.108 8.64598 14.102C8.50598 14.1 8.44398 14.146 8.44798 14.296C8.45598 14.584 8.43998 14.872 8.45398 15.16C8.46198 15.344 8.37799 15.402 8.21398 15.402C8.00598 15.402 7.79798 15.404 7.58998 15.406C7.14398 15.412 7.14398 15.414 7.14598 15.868C7.14798 16.53 7.14798 16.526 7.80598 16.532C8.01198 16.534 8.27398 16.442 8.40598 16.576C8.54198 16.706 8.42998 16.97 8.45198 17.142ZM6.35598 4.67002C6.08398 4.67002 5.81198 4.66402 5.53998 4.67202C5.35798 4.67802 5.28398 4.61002 5.27798 4.42202C5.26198 3.95802 5.22998 3.49002 5.29398 3.03202C5.44798 1.94202 6.02398 0.722016 7.45998 0.284016C8.10598 0.0860157 8.75598 -0.0619843 9.42198 0.0240157C10.674 0.184016 11.776 0.650016 12.388 1.84402C12.782 2.61002 12.78 3.46002 12.746 4.30202C12.744 4.37802 12.756 4.45602 12.612 4.42802C12.5 4.40602 12.482 4.55202 12.464 4.63602C12.436 4.76802 12.398 4.78802 12.272 4.72202C11.726 4.43602 11.368 3.99002 11.148 3.42802C11.088 3.27402 11.062 3.24602 10.908 3.35402C9.90998 4.05002 8.79998 4.44002 7.59398 4.60002C7.18198 4.65602 6.76998 4.67402 6.35598 4.67002Z" fill="#DBDDE0"/>
</svg>
