<svg width="16" height="20" viewBox="0 0 16 20" fill="none" xmlns="http://www.w3.org/2000/svg">
<path d="M15.8353 19.1101C15.7553 18.3441 15.7353 17.5721 15.6593 16.8041C15.5453 15.6541 15.3813 14.5101 15.0413 13.4001C14.8573 12.8061 14.5773 12.2901 14.0193 11.9621C13.4853 11.6481 12.9033 11.4621 12.3193 11.2801C12.1153 11.2161 12.1513 11.3601 12.1633 11.4641C12.2173 11.9661 12.1713 12.4621 12.0673 12.9521C12.0333 13.1101 12.0873 13.1821 12.2233 13.2601C12.7993 13.5821 13.1273 14.0741 13.1633 14.7401C13.1993 15.4261 13.0593 16.1001 13.0173 16.7801C12.9893 17.2421 12.9393 17.7061 12.7453 18.1361C12.5113 18.6561 12.1073 18.8621 11.5553 18.7561C11.3453 18.7161 11.2073 18.6201 11.2413 18.3881C11.2753 18.1601 11.4333 18.0801 11.6433 18.1221C11.9073 18.1741 12.0613 18.0501 12.1693 17.8341C12.2433 17.6841 12.2833 17.5201 12.2993 17.3541C12.3773 16.5881 12.4613 15.8221 12.5233 15.0541C12.5793 14.3601 12.2073 13.8341 11.5913 13.6941C10.9553 13.5501 10.4073 13.8381 10.1453 14.4861C9.93528 15.0041 9.76329 15.5381 9.56328 16.0621C9.44929 16.3581 9.35129 16.6561 9.29129 16.9661C9.21329 17.3681 9.29328 17.5161 9.66529 17.6841C9.84328 17.7641 9.92929 17.8901 9.86729 18.0801C9.80529 18.2721 9.66529 18.3261 9.47329 18.2901C8.92529 18.1861 8.60729 17.7961 8.61729 17.2341C8.62129 17.0041 8.65528 16.7821 8.71929 16.5621C8.95529 15.7461 9.26529 14.9561 9.58129 14.1681C9.86529 13.4601 10.4313 13.0701 11.2013 13.0161C11.3513 13.0041 11.4153 12.9621 11.4433 12.8161C11.5373 12.3301 11.5513 11.8441 11.5073 11.3521C11.4873 11.1201 11.3973 10.9941 11.1553 10.9561C10.9593 10.9261 10.7633 10.8601 10.5793 10.7841C10.3953 10.7101 10.3153 10.7321 10.2513 10.9401C10.0253 11.6961 9.70929 12.4181 9.34329 13.1181C9.16728 13.4561 8.96329 13.7801 8.73729 14.1721C8.64729 13.6761 8.57929 13.2541 8.49129 12.8341C8.45129 12.6461 8.45529 12.4761 8.53729 12.2981C8.58329 12.1961 8.70529 12.0761 8.58329 11.9661C8.38929 11.7901 8.17729 11.6361 7.97129 11.4741C7.96529 11.4681 7.93729 11.4821 7.92529 11.4921C7.72529 11.6641 7.49729 11.8121 7.34129 12.0161C7.24729 12.1381 7.42929 12.2981 7.46929 12.4461C7.47728 12.4801 7.49529 12.5161 7.49129 12.5481C7.40729 13.0641 7.31929 13.5781 7.22529 14.1421C7.15929 14.0641 7.12929 14.0341 7.10929 14.0001C6.58128 13.1481 6.15129 12.2521 5.82529 11.3041C5.75929 11.1101 5.76529 10.8101 5.59929 10.7481C5.44328 10.6901 5.20929 10.8441 5.00928 10.9001C4.90529 10.9301 4.81329 10.9581 4.77329 11.0801C4.69729 11.3161 4.58929 11.5401 4.53329 11.7761C4.16529 13.3121 4.25729 14.8321 4.73129 16.3341C4.80329 16.5621 4.88929 16.6861 5.14929 16.7361C5.65129 16.8361 5.92129 17.3861 5.74929 17.8621C5.56929 18.3641 5.02729 18.6001 4.55529 18.3841C4.07929 18.1681 3.87529 17.5821 4.15129 17.1461C4.25129 16.9881 4.23929 16.8661 4.18529 16.7101C3.67729 15.2521 3.54129 13.7601 3.77529 12.2321C3.82929 11.8801 3.94729 11.5441 4.02729 11.1721C3.32929 11.3761 2.65929 11.5461 2.05529 11.8981C1.61129 12.1561 1.26729 12.4941 1.07329 12.9861C0.841286 13.5761 0.701286 14.1881 0.583286 14.8081C0.311286 16.2481 0.227286 17.7101 0.117286 19.1681C0.0872856 19.5661 0.265286 19.8121 0.581286 19.9981H15.3593C15.7353 19.8201 15.8793 19.5361 15.8353 19.1101ZM4.65929 6.8101C4.79529 6.8461 4.85929 6.9121 4.91129 7.0361C5.21729 7.7681 5.59529 8.4561 6.15729 9.0281C6.60129 9.4821 7.11529 9.8221 7.76729 9.8881C8.58729 9.9721 9.22729 9.6061 9.78129 9.0521C10.3453 8.4861 10.7373 7.8061 11.0433 7.0701C11.0853 6.9701 11.0993 6.8441 11.2513 6.8301C11.7973 6.7781 12.2233 5.9141 12.1333 5.3881C12.1073 5.2381 12.0513 5.1001 11.8873 5.0901C11.6833 5.0761 11.7213 4.9681 11.7513 4.8421C11.8593 4.3901 11.9053 3.9281 11.9273 3.5321C11.9413 3.1301 11.9033 2.7961 11.8233 2.4761C11.7013 1.9921 11.4513 1.5761 10.9973 1.3441C10.7293 1.2061 10.5233 1.0541 10.4333 0.756102C10.3993 0.640102 10.2853 0.564102 10.1913 0.486102C9.84329 0.198102 9.43128 0.0721024 9.00329 0.0301024C7.72129 -0.0958976 6.52529 0.178102 5.46729 0.924102C4.73729 1.4361 4.23529 2.1121 4.13329 3.0321C4.06529 3.6381 4.09929 4.2381 4.21329 4.8361C4.23729 4.9641 4.28929 5.0981 4.06329 5.0941C3.96129 5.0921 3.89529 5.1781 3.86129 5.2781C3.67329 5.8141 4.10729 6.6641 4.65929 6.8101Z" fill="#DBDDE0"/>
</svg>
